# xmcd CD database file
#
# Track frame offsets:
#	150
#	10927
#	24314
#	36562
#	50397
#	63990
#	76113
#	89651
#	101020
#	115346
#	127825
#	139798
#	153506
#	167269
#	182483
#	194641
#	205086
#	214232
#	227880
#	242095
#	252560
#	264884
#	276213
#	290630
#	302508
#	320774
#
# Disc length: 4494 seconds
#
# Revision: 0
# Processed by: cddbd v1.5.2PL0 Copyright (c) Steve Scherf et al.
# Submitted via: CDex 1.70beta2
#
DISCID=74118c1a
DTITLE=Various Artist - Les Manouches De Saint-Ouen 1969-1983
DYEAR=2007
DGENRE=Jazz
TTITLE0=Swing Des Puces
TTITLE1=Danse Pour Deux
TTITLE2=My Melancholy Baby
TTITLE3=Clair Obscur
TTITLE4=Tea For Two
TTITLE5=I Love You
TTITLE6=Pour Un Peu D'amour
TTITLE7=La Foule 
TTITLE8=Pasadena 
TTITLE9=Les Plaisirs Démodés 
TTITLE10=Sa Préférée
TTITLE11=Ti Bleue
TTITLE12=Gipsy 
TTITLE13=La Valse Des Lilas
TTITLE14=Over The Rainbow
TTITLE15=There Will Never Be Another You
TTITLE16=Les Yeux Noirs
TTITLE17=Ainsi Soit-Il 
TTITLE18=Aimez-Vous Brahms
TTITLE19=Mundine 
TTITLE20=How Insensitive
TTITLE21=Lacoune De L'an 2000
TTITLE22=The Girl From Ipanema
TTITLE23=Chez Jacquet 
TTITLE24=Nuages 
TTITLE25=Quand Refleuriront Les Lilas Blancs
EXTD=YEAR: 2007
EXTT0=
EXTT1=
EXTT2=
EXTT3=
EXTT4=
EXTT5=
EXTT6=
EXTT7=
EXTT8=
EXTT9=
EXTT10=
EXTT11=
EXTT12=
EXTT13=
EXTT14=
EXTT15=
EXTT16=
EXTT17=
EXTT18=
EXTT19=
EXTT20=
EXTT21=
EXTT22=
EXTT23=
EXTT24=
EXTT25=
PLAYORDER=
